<svg version="1.0" xmlns="http://www.w3.org/2000/svg" width="94.000000pt" height="82.000000pt" viewBox="0 0 94.000000 82.000000" preserveAspectRatio="xMidYMid meet">

    <g transform="translate(0.000000,82.000000) scale(0.100000,-0.100000)" fill="#000000" stroke="none">
        <path d="M183 554 c11 -267 55 -362 188 -409 45 -16 214 -21 223 -6 3 5 -5 24
-19 42 -13 19 -36 50 -50 70 -17 24 -33 71 -49 151 -13 63 -33 132 -44 154
-39 76 -120 132 -216 150 l-39 7 6 -159z" />
        <path d="M634 530 c-27 -11 -72 -65 -80 -97 -11 -43 23 -129 71 -179 27 -29
50 -44 61 -42 29 5 62 64 79 142 19 85 13 108 -39 154 -38 33 -55 37 -92 22z" />
    </g>
</svg>